<?xml version="1.0" encoding="utf-8"?>
<!-- Generator: Adobe Illustrator 27.5.0, SVG Export Plug-In . SVG Version: 6.00 Build 0)  -->
<svg version="1.1" xmlns="http://www.w3.org/2000/svg" xmlns:xlink="http://www.w3.org/1999/xlink" x="0px" y="0px"
	 viewBox="0 0 600 500" style="enable-background:new 0 0 600 500;" xml:space="preserve">
<g id="BACKGROUND">
	<rect style="fill:#FFFFFF;" width="600" height="500"/>
</g>
<g id="OBJECTS">
	<g>
		<path style="fill:#CEDDE0;" d="M518.911,437.048c0,0,0-81.244,0-117.884c0-36.64-10.355-96.504-84.43-125.912
			s-78.855-53.304-98.768-95.519C315.8,55.519,264.823,32.42,185.969,54.722c-78.855,22.302-98.768,103.277-98.768,155.185
			c0,51.908,0,227.141,0,227.141H518.911z"/>
		<g>
			<g>
				
					<ellipse transform="matrix(0.1602 -0.9871 0.9871 0.1602 21.6379 234.4977)" style="fill:none;stroke:#A4CACF;stroke-width:0.5955;stroke-linecap:round;stroke-linejoin:round;stroke-miterlimit:10;" cx="148.628" cy="104.533" rx="7.772" ry="7.773"/>
				
					<ellipse transform="matrix(0.1602 -0.9871 0.9871 0.1602 38.7775 254.6428)" style="fill:none;stroke:#A4CACF;stroke-width:0.5955;stroke-linecap:round;stroke-linejoin:round;stroke-miterlimit:10;" cx="169.037" cy="104.533" rx="7.772" ry="7.773"/>
				
					<ellipse transform="matrix(0.1602 -0.9871 0.9871 0.1602 55.9171 274.788)" style="fill:none;stroke:#A4CACF;stroke-width:0.5955;stroke-linecap:round;stroke-linejoin:round;stroke-miterlimit:10;" cx="189.446" cy="104.533" rx="7.772" ry="7.773"/>
			</g>
			<g>
				
					<ellipse transform="matrix(0.1602 -0.9871 0.9871 0.1602 1.9232 251.271)" style="fill:none;stroke:#A4CACF;stroke-width:0.5955;stroke-linecap:round;stroke-linejoin:round;stroke-miterlimit:10;" cx="148.628" cy="124.505" rx="7.772" ry="7.773"/>
				
					<ellipse transform="matrix(0.1602 -0.9871 0.9871 0.1602 19.0628 271.4162)" style="fill:none;stroke:#A4CACF;stroke-width:0.5955;stroke-linecap:round;stroke-linejoin:round;stroke-miterlimit:10;" cx="169.037" cy="124.505" rx="7.772" ry="7.773"/>
				
					<ellipse transform="matrix(0.1602 -0.9871 0.9871 0.1602 36.2024 291.5613)" style="fill:none;stroke:#A4CACF;stroke-width:0.5955;stroke-linecap:round;stroke-linejoin:round;stroke-miterlimit:10;" cx="189.446" cy="124.505" rx="7.772" ry="7.773"/>
			</g>
			<g>
				
					<ellipse transform="matrix(0.1602 -0.9871 0.9871 0.1602 -17.7915 268.0443)" style="fill:none;stroke:#A4CACF;stroke-width:0.5955;stroke-linecap:round;stroke-linejoin:round;stroke-miterlimit:10;" cx="148.628" cy="144.478" rx="7.772" ry="7.773"/>
				
					<ellipse transform="matrix(0.1602 -0.9871 0.9871 0.1602 -0.6519 288.1895)" style="fill:none;stroke:#A4CACF;stroke-width:0.5955;stroke-linecap:round;stroke-linejoin:round;stroke-miterlimit:10;" cx="169.037" cy="144.478" rx="7.772" ry="7.773"/>
				
					<ellipse transform="matrix(0.1602 -0.9871 0.9871 0.1602 16.4877 308.3347)" style="fill:none;stroke:#A4CACF;stroke-width:0.5955;stroke-linecap:round;stroke-linejoin:round;stroke-miterlimit:10;" cx="189.446" cy="144.478" rx="7.772" ry="7.773"/>
			</g>
			<g>
				
					<circle style="fill:none;stroke:#A4CACF;stroke-width:0.5955;stroke-linecap:round;stroke-linejoin:round;stroke-miterlimit:10;" cx="148.628" cy="164.451" r="7.773"/>
				
					<circle style="fill:none;stroke:#A4CACF;stroke-width:0.5955;stroke-linecap:round;stroke-linejoin:round;stroke-miterlimit:10;" cx="169.037" cy="164.451" r="7.773"/>
				
					<circle style="fill:none;stroke:#A4CACF;stroke-width:0.5955;stroke-linecap:round;stroke-linejoin:round;stroke-miterlimit:10;" cx="189.446" cy="164.451" r="7.773"/>
			</g>
		</g>
		<g>
			
				<path style="fill:none;stroke:#A4CACF;stroke-width:0.8479;stroke-linecap:round;stroke-linejoin:round;stroke-miterlimit:10;" d="
				M392.437,171.77h-39.913c-1.936,0-3.506-1.57-3.506-3.506v-3.262c0-1.936,1.569-3.506,3.506-3.506h39.913
				c1.936,0,3.506,1.57,3.506,3.506v3.262C395.942,170.201,394.373,171.77,392.437,171.77z"/>
			
				<path style="fill:none;stroke:#A4CACF;stroke-width:0.8479;stroke-linecap:round;stroke-linejoin:round;stroke-miterlimit:10;" d="
				M392.437,187.047h-39.913c-1.936,0-3.506-1.57-3.506-3.506v-3.262c0-1.936,1.569-3.506,3.506-3.506h39.913
				c1.936,0,3.506,1.57,3.506,3.506v3.262C395.942,185.478,394.373,187.047,392.437,187.047z"/>
			
				<path style="fill:none;stroke:#A4CACF;stroke-width:0.8479;stroke-linecap:round;stroke-linejoin:round;stroke-miterlimit:10;" d="
				M392.437,202.324h-39.913c-1.936,0-3.506-1.57-3.506-3.506v-3.262c0-1.936,1.569-3.506,3.506-3.506h39.913
				c1.936,0,3.506,1.57,3.506,3.506v3.262C395.942,200.755,394.373,202.324,392.437,202.324z"/>
			
				<path style="fill:none;stroke:#A4CACF;stroke-width:0.8479;stroke-linecap:round;stroke-linejoin:round;stroke-miterlimit:10;" d="
				M392.437,217.601h-39.913c-1.936,0-3.506-1.57-3.506-3.506v-3.262c0-1.936,1.569-3.506,3.506-3.506h39.913
				c1.936,0,3.506,1.57,3.506,3.506v3.262C395.942,216.031,394.373,217.601,392.437,217.601z"/>
		</g>
		<path style="fill:#A4CACF;" d="M292.628,104.312h72.723c2.614,0,4.733-2.119,4.733-4.733V88.09
			c0-18.34-15.72-31.768-31.223-16.539c-13.318-12.773-29.038-0.491-29.038,11.463c-10.695-3.616-19.873,2.751-21.868,15.792
			C287.512,101.693,289.706,104.312,292.628,104.312z"/>
		<path style="fill:#A4CACF;" d="M138.54,192.026H71.21c-2.42,0-4.382-1.962-4.382-4.382v-10.637
			c0-16.98,14.555-29.412,28.908-15.312c12.33-11.826,26.884-0.455,26.884,10.613c9.902-3.348,18.399,2.547,20.247,14.62
			C143.276,189.602,141.245,192.026,138.54,192.026z"/>
		<g>
			<path style="fill:#4A75C9;" d="M330.005,200.636H219.344c-5.098,0-9.231-4.133-9.231-9.231v-62.889
				c0-5.098,4.133-9.231,9.231-9.231h110.661c5.098,0,9.231,4.133,9.231,9.231v62.889
				C339.237,196.503,335.104,200.636,330.005,200.636z"/>
			<polygon style="fill:#4A75C9;" points="191.42,188.563 214.008,188.563 214.008,172.855 			"/>
			<g>
				<path style="fill:#FFFFFF;" d="M246.137,131.985c-15.45,0-27.975,12.525-27.975,27.975c0,15.45,12.525,27.975,27.975,27.975
					c15.45,0,27.975-12.525,27.975-27.975C274.112,144.51,261.587,131.985,246.137,131.985z M246.137,173.168
					c-7.294,0-13.207-5.913-13.207-13.207c0-7.294,5.913-13.207,13.207-13.207s13.207,5.913,13.207,13.207
					C259.344,167.255,253.431,173.168,246.137,173.168z"/>
				<path style="fill:#CEDDE0;" d="M273.636,165.083c0.308-1.662,0.476-3.372,0.476-5.123c0-15.45-12.525-27.975-27.975-27.975
					v14.768c7.294,0,13.207,5.913,13.207,13.207c0,0.827-0.086,1.633-0.231,2.417L273.636,165.083z"/>
				<path style="fill:#EBBC3B;" d="M273.636,165.083l-14.523-2.705c-0.426,2.298-1.442,4.387-2.892,6.102l11.282,9.531
					C270.575,174.378,272.734,169.952,273.636,165.083z"/>
				<path style="fill:#28364F;" d="M232.93,159.96c0-2.506,0.711-4.84,1.923-6.837l-12.645-7.661
					c-2.567,4.228-4.045,9.19-4.045,14.498c0,11.786,7.292,21.862,17.607,25.982l5.476-13.722
					C236.375,170.275,232.93,165.524,232.93,159.96z"/>
				<path style="fill:#D65353;" d="M256.221,168.48c-2.423,2.865-6.039,4.688-10.084,4.688c-1.73,0-3.378-0.342-4.893-0.947
					l-5.476,13.722c3.207,1.281,6.704,1.993,10.368,1.993c8.569,0,16.234-3.857,21.366-9.925L256.221,168.48z"/>
			</g>
			<g>
				<g>
					
						<circle style="fill:none;stroke:#FFFFFF;stroke-width:0.8479;stroke-linecap:round;stroke-linejoin:round;stroke-miterlimit:10;" cx="289.009" cy="137.048" r="3.083"/>
					
						<line style="fill:none;stroke:#FFFFFF;stroke-width:0.8479;stroke-linecap:round;stroke-linejoin:round;stroke-miterlimit:10;" x1="295.792" y1="137.048" x2="327.207" y2="137.048"/>
				</g>
				<g>
					
						<path style="fill:none;stroke:#FFFFFF;stroke-width:0.8479;stroke-linecap:round;stroke-linejoin:round;stroke-miterlimit:10;" d="
						M292.092,148.504c0,1.703-1.38,3.083-3.083,3.083c-1.703,0-3.083-1.38-3.083-3.083c0-1.703,1.38-3.083,3.083-3.083
						C290.712,145.421,292.092,146.801,292.092,148.504z"/>
					
						<line style="fill:none;stroke:#FFFFFF;stroke-width:0.8479;stroke-linecap:round;stroke-linejoin:round;stroke-miterlimit:10;" x1="295.792" y1="148.504" x2="327.207" y2="148.504"/>
				</g>
				<g>
					
						<path style="fill:none;stroke:#FFFFFF;stroke-width:0.8479;stroke-linecap:round;stroke-linejoin:round;stroke-miterlimit:10;" d="
						M292.092,159.96c0,1.703-1.38,3.083-3.083,3.083c-1.703,0-3.083-1.38-3.083-3.083c0-1.703,1.38-3.083,3.083-3.083
						C290.712,156.877,292.092,158.258,292.092,159.96z"/>
					
						<line style="fill:none;stroke:#FFFFFF;stroke-width:0.8479;stroke-linecap:round;stroke-linejoin:round;stroke-miterlimit:10;" x1="295.792" y1="159.96" x2="327.207" y2="159.96"/>
				</g>
				<g>
					
						<circle style="fill:none;stroke:#FFFFFF;stroke-width:0.8479;stroke-linecap:round;stroke-linejoin:round;stroke-miterlimit:10;" cx="289.009" cy="171.417" r="3.083"/>
					
						<line style="fill:none;stroke:#FFFFFF;stroke-width:0.8479;stroke-linecap:round;stroke-linejoin:round;stroke-miterlimit:10;" x1="295.792" y1="171.417" x2="327.207" y2="171.417"/>
				</g>
				<g>
					
						<path style="fill:none;stroke:#FFFFFF;stroke-width:0.8479;stroke-linecap:round;stroke-linejoin:round;stroke-miterlimit:10;" d="
						M292.092,182.873c0,1.703-1.38,3.083-3.083,3.083c-1.703,0-3.083-1.38-3.083-3.083c0-1.703,1.38-3.083,3.083-3.083
						C290.712,179.79,292.092,181.17,292.092,182.873z"/>
					
						<line style="fill:none;stroke:#FFFFFF;stroke-width:0.8479;stroke-linecap:round;stroke-linejoin:round;stroke-miterlimit:10;" x1="295.792" y1="182.873" x2="327.207" y2="182.873"/>
				</g>
			</g>
		</g>
		<g>
			<rect x="65.688" y="239.867" style="fill:#6E9296;" width="131.865" height="9.635"/>
			<rect x="65.688" y="427.414" style="fill:#6E9296;" width="131.865" height="9.635"/>
			<path style="fill:#6E9296;" d="M147.365,329.2c-0.025,0.026-0.05,0.052-0.074,0.078c-4.863,5.096-4.863,13.265,0,18.361
				c0.025,0.026,0.05,0.052,0.074,0.078l7.373,7.628c14.719,15.228,22.873,35.058,22.873,55.625v16.445h-45.99h-45.99v-16.445
				c0-20.567,8.154-40.397,22.873-55.625l7.373-7.628c0.025-0.026,0.05-0.052,0.075-0.078c4.863-5.096,4.863-13.265,0-18.361
				c-0.025-0.026-0.049-0.052-0.075-0.078l-7.373-7.628c-14.719-15.228-22.873-35.058-22.873-55.625v-16.445h45.99h45.99v16.445
				c0,20.567-8.154,40.397-22.873,55.625L147.365,329.2z M80.01,249.502h-8.066v177.912h8.066V249.502z M191.298,249.502h-8.066
				v177.912h8.066V249.502z"/>
			<g>
				<rect x="71.944" y="249.502" style="fill:#6E9296;" width="8.066" height="6.775"/>
				<rect x="183.232" y="249.502" style="fill:#6E9296;" width="8.066" height="6.775"/>
			</g>
			<g>
				<rect x="71.944" y="420.638" style="fill:#6E9296;" width="8.066" height="6.775"/>
				<rect x="183.232" y="420.638" style="fill:#6E9296;" width="8.066" height="6.775"/>
			</g>
			<path style="fill:#BEDCE0;" d="M174.424,410.763c-0.03-11.069-9.17-19.96-20.239-19.96h-0.327
				c-11.333,0-20.519-9.187-20.519-20.519v-22.519c0-8.212,3.855-15.984,10.49-20.824c2.309-1.684,4.743-3.686,7.109-6.023
				c9.152-9.036,13.456-17.452,13.456-17.452h-32.773H98.848c0,0,4.304,8.416,13.456,17.452c2.367,2.336,4.801,4.339,7.109,6.023
				c6.634,4.84,10.49,12.612,10.49,20.824v22.519c0,11.332-9.187,20.519-20.519,20.519h-0.328c-11.069,0-20.208,8.891-20.239,19.96
				c0,0.069,0,0.137,0,0.206v13.258h85.607v-13.258C174.424,410.9,174.424,410.831,174.424,410.763z"/>
			<g>
				<polygon style="fill:#28364F;" points="177.611,249.502 131.621,249.502 85.631,249.502 85.631,259.77 177.611,254.115 				"/>
				<polygon style="fill:#28364F;" points="183.232,253.77 191.298,253.274 191.298,249.502 183.232,249.502 				"/>
				<polygon style="fill:#28364F;" points="71.944,260.612 80.01,260.116 80.01,249.502 71.944,249.502 				"/>
			</g>
			<g>
				<rect x="71.944" y="420.638" style="fill:#28364F;" width="8.066" height="6.775"/>
				<rect x="183.232" y="420.638" style="fill:#28364F;" width="8.066" height="6.775"/>
				<polygon style="fill:#28364F;" points="85.631,427.414 131.621,427.414 177.611,427.414 177.611,420.638 85.631,420.638 				"/>
			</g>
		</g>
		<g>
			<polygon style="fill:#1B2536;" points="229.471,437.049 443.306,437.049 432.068,234.053 218.233,234.053 			"/>
			<polygon style="fill:#EBBC3B;" points="388.233,437.049 174.397,437.049 217.879,234.053 431.715,234.053 			"/>
			<polygon style="fill:#4A75C9;" points="424.358,268.396 210.523,268.396 217.879,234.053 431.715,234.053 			"/>
			<g>
				<g>
					<polygon style="fill:none;stroke:#FFFFFF;stroke-width:0.6746;stroke-miterlimit:10;" points="241.932,303.46 222.944,303.46 
						226.894,285.022 245.881,285.022 					"/>
					<polygon style="fill:#D65353;" points="267.762,303.46 248.775,303.46 252.724,285.022 271.712,285.022 					"/>
					<polygon style="fill:none;stroke:#FFFFFF;stroke-width:0.6746;stroke-miterlimit:10;" points="293.593,303.46 274.605,303.46 
						278.555,285.022 297.542,285.022 					"/>
					<polygon style="fill:none;stroke:#FFFFFF;stroke-width:0.6746;stroke-miterlimit:10;" points="319.424,303.46 300.436,303.46 
						304.385,285.022 323.373,285.022 					"/>
					<polygon style="fill:none;stroke:#FFFFFF;stroke-width:0.6746;stroke-miterlimit:10;" points="345.254,303.46 326.267,303.46 
						330.216,285.022 349.204,285.022 					"/>
					<polygon style="fill:none;stroke:#FFFFFF;stroke-width:0.6746;stroke-miterlimit:10;" points="371.085,303.46 352.097,303.46 
						356.046,285.022 375.034,285.022 					"/>
					<polygon style="fill:#FFFFFF;" points="396.915,303.46 377.928,303.46 381.877,285.022 400.865,285.022 					"/>
				</g>
				<g>
					<polygon style="fill:none;stroke:#FFFFFF;stroke-width:0.6746;stroke-miterlimit:10;" points="236.727,327.762 
						217.739,327.762 221.688,309.324 240.676,309.324 					"/>
					<polygon style="fill:none;stroke:#FFFFFF;stroke-width:0.6746;stroke-miterlimit:10;" points="262.557,327.762 243.57,327.762 
						247.519,309.324 266.507,309.324 					"/>
					<polygon style="fill:#6E9296;" points="288.388,327.762 269.4,327.762 273.349,309.324 292.337,309.324 					"/>
					<polygon style="fill:none;stroke:#FFFFFF;stroke-width:0.6746;stroke-miterlimit:10;" points="314.218,327.762 
						295.231,327.762 299.18,309.324 318.168,309.324 					"/>
					<polygon style="fill:none;stroke:#FFFFFF;stroke-width:0.6746;stroke-miterlimit:10;" points="340.049,327.762 
						321.061,327.762 325.01,309.324 343.998,309.324 					"/>
					<polygon style="fill:none;stroke:#FFFFFF;stroke-width:0.6746;stroke-miterlimit:10;" points="365.879,327.762 
						346.892,327.762 350.841,309.324 369.829,309.324 					"/>
					<polygon style="fill:#FFFFFF;" points="391.71,327.762 372.722,327.762 376.672,309.324 395.659,309.324 					"/>
				</g>
				<g>
					<polygon style="fill:none;stroke:#FFFFFF;stroke-width:0.6746;stroke-miterlimit:10;" points="231.521,352.063 
						212.533,352.063 216.483,333.626 235.47,333.626 					"/>
					<polygon style="fill:none;stroke:#FFFFFF;stroke-width:0.6746;stroke-miterlimit:10;" points="257.352,352.063 
						238.364,352.063 242.313,333.626 261.301,333.626 					"/>
					<polygon style="fill:#6E9296;" points="283.182,352.063 264.195,352.063 268.144,333.626 287.132,333.626 					"/>
					<polygon style="fill:#D65353;" points="309.013,352.063 290.025,352.063 293.974,333.626 312.962,333.626 					"/>
					<polygon style="fill:none;stroke:#FFFFFF;stroke-width:0.6746;stroke-miterlimit:10;" points="334.843,352.063 
						315.856,352.063 319.805,333.626 338.793,333.626 					"/>
					<polygon style="fill:none;stroke:#FFFFFF;stroke-width:0.6746;stroke-miterlimit:10;" points="360.674,352.063 
						341.686,352.063 345.636,333.626 364.623,333.626 					"/>
					<polygon style="fill:#FFFFFF;" points="386.504,352.063 367.517,352.063 371.466,333.626 390.454,333.626 					"/>
				</g>
				<g>
					<polygon style="fill:none;stroke:#FFFFFF;stroke-width:0.6746;stroke-miterlimit:10;" points="226.316,376.365 
						207.328,376.365 211.277,357.927 230.265,357.927 					"/>
					<polygon style="fill:none;stroke:#FFFFFF;stroke-width:0.6746;stroke-miterlimit:10;" points="252.146,376.365 
						233.159,376.365 237.108,357.927 256.096,357.927 					"/>
					<polygon style="fill:none;stroke:#FFFFFF;stroke-width:0.6746;stroke-miterlimit:10;" points="277.977,376.365 
						258.989,376.365 262.939,357.927 281.926,357.927 					"/>
					<polygon style="fill:none;stroke:#FFFFFF;stroke-width:0.6746;stroke-miterlimit:10;" points="303.807,376.365 284.82,376.365 
						288.769,357.927 307.757,357.927 					"/>
					<polygon style="fill:#6E9296;" points="329.638,376.365 310.65,376.365 314.6,357.927 333.587,357.927 					"/>
					<polygon style="fill:#6E9296;" points="355.468,376.365 336.481,376.365 340.43,357.927 359.418,357.927 					"/>
					<polygon style="fill:#FFFFFF;" points="381.299,376.365 362.311,376.365 366.261,357.927 385.248,357.927 					"/>
				</g>
				<g>
					<polygon style="fill:none;stroke:#FFFFFF;stroke-width:0.6746;stroke-miterlimit:10;" points="221.11,400.667 202.122,400.667 
						206.072,382.229 225.059,382.229 					"/>
					<polygon style="fill:none;stroke:#FFFFFF;stroke-width:0.6746;stroke-miterlimit:10;" points="246.941,400.667 
						227.953,400.667 231.902,382.229 250.89,382.229 					"/>
					<polygon style="fill:none;stroke:#FFFFFF;stroke-width:0.6746;stroke-miterlimit:10;" points="272.771,400.667 
						253.784,400.667 257.733,382.229 276.721,382.229 					"/>
				</g>
			</g>
			<path style="fill:none;stroke:#FFFFFF;stroke-width:0.6746;stroke-miterlimit:10;" d="M302.216,417.584H201.829
				c-1.839,0-2.96-1.727-2.504-3.858l0,0c0.456-2.131,2.318-3.858,4.157-3.858H303.87c1.839,0,2.96,1.727,2.504,3.858l0,0
				C305.917,415.856,304.056,417.584,302.216,417.584z"/>
			<g>
				<path style="fill:#1B2536;" d="M251.906,224.025c4.25,0,7.122,4.05,7.31,10.027h2.822c0.043-7.816-3.748-13.193-9.454-13.193
					c-7.082,0-14.634,8.359-16.835,18.633c-2.201,10.274,1.77,18.633,8.853,18.633l0.678-3.166c-5.575,0-8.625-6.939-6.798-15.467
					C240.309,230.964,246.331,224.025,251.906,224.025z"/>
				<path style="fill:#1B2536;" d="M268.644,224.025c4.25,0,7.122,4.05,7.31,10.027h2.822c0.043-7.816-3.748-13.193-9.454-13.193
					c-7.082,0-14.634,8.359-16.835,18.633c-2.201,10.274,1.77,18.633,8.853,18.633l0.678-3.166c-5.575,0-8.625-6.939-6.798-15.467
					C257.047,230.964,263.069,224.025,268.644,224.025z"/>
				<path style="fill:#1B2536;" d="M285.382,224.025c4.25,0,7.122,4.05,7.31,10.027h2.822c0.043-7.816-3.748-13.193-9.454-13.193
					c-7.082,0-14.634,8.359-16.835,18.633c-2.201,10.274,1.77,18.633,8.853,18.633l0.678-3.166c-5.575,0-8.625-6.939-6.798-15.467
					C273.785,230.964,279.807,224.025,285.382,224.025z"/>
				<path style="fill:#1B2536;" d="M302.12,224.025c4.25,0,7.122,4.05,7.31,10.027h2.822c0.043-7.816-3.748-13.193-9.454-13.193
					c-7.082,0-14.634,8.359-16.835,18.633c-2.201,10.274,1.77,18.633,8.853,18.633l0.678-3.166c-5.575,0-8.625-6.939-6.798-15.467
					C290.523,230.964,296.545,224.025,302.12,224.025z"/>
				<path style="fill:#1B2536;" d="M318.858,224.025c4.25,0,7.122,4.05,7.31,10.027h2.822c0.043-7.816-3.748-13.193-9.454-13.193
					c-7.082,0-14.634,8.359-16.835,18.633c-2.201,10.274,1.771,18.633,8.853,18.633l0.678-3.166c-5.575,0-8.625-6.939-6.798-15.467
					C307.261,230.964,313.283,224.025,318.858,224.025z"/>
				<path style="fill:#1B2536;" d="M335.596,224.025c4.25,0,7.122,4.05,7.31,10.027h2.822c0.043-7.816-3.748-13.193-9.454-13.193
					c-7.082,0-14.634,8.359-16.835,18.633c-2.201,10.274,1.77,18.633,8.853,18.633l0.678-3.166c-5.575,0-8.625-6.939-6.798-15.467
					C323.999,230.964,330.021,224.025,335.596,224.025z"/>
				<path style="fill:#1B2536;" d="M352.334,224.025c4.25,0,7.122,4.05,7.31,10.027h2.822c0.043-7.816-3.748-13.193-9.454-13.193
					c-7.082,0-14.634,8.359-16.835,18.633c-2.201,10.274,1.77,18.633,8.853,18.633l0.678-3.166c-5.575,0-8.625-6.939-6.798-15.467
					C340.737,230.964,346.759,224.025,352.334,224.025z"/>
				<path style="fill:#1B2536;" d="M369.072,224.025c4.25,0,7.122,4.05,7.31,10.027h2.822c0.043-7.816-3.748-13.193-9.454-13.193
					c-7.082,0-14.634,8.359-16.835,18.633c-2.201,10.274,1.77,18.633,8.853,18.633l0.678-3.166c-5.575,0-8.625-6.939-6.798-15.467
					C357.474,230.964,363.497,224.025,369.072,224.025z"/>
				<path style="fill:#1B2536;" d="M385.81,224.025c4.25,0,7.122,4.05,7.31,10.027h2.822c0.043-7.816-3.748-13.193-9.454-13.193
					c-7.082,0-14.634,8.359-16.835,18.633c-2.201,10.274,1.77,18.633,8.853,18.633l0.678-3.166c-5.575,0-8.625-6.939-6.798-15.467
					C374.212,230.964,380.235,224.025,385.81,224.025z"/>
				<path style="fill:#1B2536;" d="M402.548,224.025c4.25,0,7.122,4.05,7.31,10.027h2.822c0.043-7.816-3.748-13.193-9.454-13.193
					c-7.082,0-14.634,8.359-16.835,18.633c-2.201,10.274,1.77,18.633,8.853,18.633l0.678-3.166c-5.575,0-8.625-6.939-6.798-15.467
					C390.951,230.964,396.973,224.025,402.548,224.025z"/>
			</g>
			<polyline style="fill:none;stroke:#4A75C9;stroke-width:2.9413;stroke-miterlimit:10;" points="329.853,283.235 336.61,296.343 
				354.128,276.755 			"/>
			<polyline style="fill:none;stroke:#4A75C9;stroke-width:2.9413;stroke-miterlimit:10;" points="217.002,332.236 223.758,345.345 
				241.276,325.756 			"/>
			<polyline style="fill:none;stroke:#4A75C9;stroke-width:2.9413;stroke-miterlimit:10;" points="237.417,356.486 244.173,369.594 
				261.691,350.006 			"/>
		</g>
		<g>
			<circle style="fill:#4A75C9;" cx="471.08" cy="186.071" r="66.786"/>
			
				<ellipse transform="matrix(0.8979 -0.4401 0.4401 0.8979 -33.8134 226.3388)" style="fill:#FFFFFF;" cx="471.08" cy="186.071" rx="56.211" ry="56.211"/>
			<path style="fill:#4A75C9;" d="M478.277,186.072c-0.001,3.975-3.224,7.197-7.199,7.197c-3.975-0.001-7.197-3.224-7.197-7.199
				c0.001-3.975,3.224-7.197,7.199-7.196C475.056,178.874,478.278,182.097,478.277,186.072z"/>
			<g>
				<g>
					<rect x="468.932" y="132.866" style="fill:#EBBC3B;" width="4.314" height="8.149"/>
					<rect x="468.913" y="231.128" style="fill:#EBBC3B;" width="4.314" height="8.149"/>
				</g>
				<g>
					
						<rect x="444.365" y="139.443" transform="matrix(0.8661 -0.4998 0.4998 0.8661 -11.9543 242.4045)" style="fill:#EBBC3B;" width="4.314" height="8.149"/>
					
						<rect x="493.48" y="224.55" transform="matrix(0.8661 -0.4998 0.4998 0.8661 -47.9186 278.3494)" style="fill:#EBBC3B;" width="4.314" height="8.149"/>
				</g>
				<g>
					
						<rect x="426.379" y="157.423" transform="matrix(0.5002 -0.8659 0.8659 0.5002 74.3483 451.7997)" style="fill:#EBBC3B;" width="4.314" height="8.149"/>
					
						<rect x="511.466" y="206.571" transform="matrix(0.5002 -0.8659 0.8659 0.5002 74.3232 550.0496)" style="fill:#EBBC3B;" width="4.314" height="8.149"/>
				</g>
				<g>
					
						<rect x="419.792" y="181.987" transform="matrix(1.854470e-04 -1 1 1.854470e-04 235.8088 607.9754)" style="fill:#EBBC3B;" width="4.314" height="8.149"/>
					
						<rect x="518.054" y="182.006" transform="matrix(1.854427e-04 -1 1 1.854427e-04 334.0334 706.2567)" style="fill:#EBBC3B;" width="4.314" height="8.149"/>
				</g>
				<g>
					
						<rect x="426.369" y="206.554" transform="matrix(-0.4998 -0.8661 0.8661 -0.4998 460.2932 687.0626)" style="fill:#EBBC3B;" width="4.314" height="8.149"/>
					
						<rect x="511.476" y="157.44" transform="matrix(-0.4998 -0.8661 0.8661 -0.4998 630.4794 687.1111)" style="fill:#EBBC3B;" width="4.314" height="8.149"/>
				</g>
				<g>
					
						<rect x="444.349" y="224.541" transform="matrix(-0.8659 -0.5002 0.5002 -0.8659 718.7983 649.9093)" style="fill:#EBBC3B;" width="4.314" height="8.149"/>
					
						<rect x="493.496" y="139.453" transform="matrix(-0.8659 -0.5002 0.5002 -0.8659 853.0628 515.7242)" style="fill:#EBBC3B;" width="4.314" height="8.149"/>
				</g>
			</g>
			
				<polyline style="fill:none;stroke:#1B2536;stroke-width:2.5564;stroke-linecap:round;stroke-linejoin:round;stroke-miterlimit:10;" points="
				436.798,173.722 471.079,186.071 506.305,151.806 			"/>
			<path style="fill:#4A75C9;" d="M509.151,151.807c0,1.572-1.275,2.846-2.847,2.846c-1.572,0-2.846-1.275-2.845-2.847
				c0-1.572,1.275-2.846,2.847-2.845C507.877,148.96,509.151,150.235,509.151,151.807z"/>
			<path style="fill:#4A75C9;" d="M439.644,173.801c0,1.572-1.275,2.846-2.847,2.845c-1.572,0-2.846-1.275-2.845-2.846
				c0-1.572,1.275-2.846,2.846-2.846S439.645,172.229,439.644,173.801z"/>
		</g>
		<g>
			<path style="fill:#6E9296;" d="M531.128,268.396h-55.144c-5.523,0-10,4.477-10,10v89.059c0,5.523,4.477,10,10,10h55.144
				c5.523,0,10-4.477,10-10v-89.059C541.128,272.874,536.651,268.396,531.128,268.396z"/>
			
				<text transform="matrix(1 0 0 1 476.7122 286.2229)" style="fill:#FFFFFF; font-family:'DelaGothicOne-Regular'; font-size:13.6433px; letter-spacing:1;">PLAN</text>
			<g>
				<g>
					<path style="fill:#EBBC3B;" d="M482.266,303.919c0,1.846-1.497,3.343-3.343,3.343c-1.846,0-3.343-1.497-3.343-3.343
						c0-1.846,1.497-3.343,3.343-3.343C480.769,300.577,482.266,302.073,482.266,303.919z"/>
					<path style="fill:none;stroke:#FFFFFF;stroke-width:0.6746;stroke-miterlimit:10;" d="M529.714,305.737h-41.541
						c-1.004,0-1.817-0.814-1.817-1.817l0,0c0-1.004,0.814-1.817,1.817-1.817h41.541c1.004,0,1.817,0.814,1.817,1.817l0,0
						C531.531,304.923,530.717,305.737,529.714,305.737z"/>
				</g>
				<g>
					<path style="fill:#EBBC3B;" d="M482.266,319.173c0,1.846-1.497,3.343-3.343,3.343c-1.846,0-3.343-1.497-3.343-3.343
						c0-1.846,1.497-3.343,3.343-3.343C480.769,315.83,482.266,317.327,482.266,319.173z"/>
					<path style="fill:none;stroke:#FFFFFF;stroke-width:0.6746;stroke-miterlimit:10;" d="M529.714,320.99h-41.541
						c-1.004,0-1.817-0.814-1.817-1.817l0,0c0-1.004,0.814-1.817,1.817-1.817h41.541c1.004,0,1.817,0.814,1.817,1.817l0,0
						C531.531,320.177,530.717,320.99,529.714,320.99z"/>
				</g>
				<g>
					<path style="fill:#EBBC3B;" d="M482.266,334.426c0,1.846-1.497,3.343-3.343,3.343c-1.846,0-3.343-1.497-3.343-3.343
						c0-1.846,1.497-3.343,3.343-3.343C480.769,331.083,482.266,332.58,482.266,334.426z"/>
					<path style="fill:none;stroke:#FFFFFF;stroke-width:0.6746;stroke-miterlimit:10;" d="M529.714,336.244h-41.541
						c-1.004,0-1.817-0.814-1.817-1.817l0,0c0-1.004,0.814-1.818,1.817-1.818h41.541c1.004,0,1.817,0.814,1.817,1.818l0,0
						C531.531,335.43,530.717,336.244,529.714,336.244z"/>
				</g>
				<g>
					<path style="fill:#EBBC3B;" d="M482.266,349.68c0,1.846-1.497,3.343-3.343,3.343c-1.846,0-3.343-1.497-3.343-3.343
						c0-1.846,1.497-3.343,3.343-3.343C480.769,346.337,482.266,347.833,482.266,349.68z"/>
					<path style="fill:none;stroke:#FFFFFF;stroke-width:0.6746;stroke-miterlimit:10;" d="M529.714,351.497h-41.541
						c-1.004,0-1.817-0.814-1.817-1.818l0,0c0-1.004,0.814-1.817,1.817-1.817h41.541c1.004,0,1.817,0.814,1.817,1.817l0,0
						C531.531,350.683,530.717,351.497,529.714,351.497z"/>
				</g>
				<g>
					<path style="fill:#EBBC3B;" d="M482.266,364.933c0,1.846-1.497,3.343-3.343,3.343c-1.846,0-3.343-1.497-3.343-3.343
						c0-1.846,1.497-3.343,3.343-3.343C480.769,361.59,482.266,363.087,482.266,364.933z"/>
					<path style="fill:none;stroke:#FFFFFF;stroke-width:0.6746;stroke-miterlimit:10;" d="M529.714,366.75h-41.541
						c-1.004,0-1.817-0.814-1.817-1.817l0,0c0-1.004,0.814-1.817,1.817-1.817h41.541c1.004,0,1.817,0.814,1.817,1.817l0,0
						C531.531,365.937,530.717,366.75,529.714,366.75z"/>
				</g>
			</g>
			
				<line style="fill:none;stroke:#FFFFFF;stroke-width:0.6746;stroke-miterlimit:10;" x1="469.056" y1="290.635" x2="538.055" y2="290.635"/>
		</g>
		
			<line style="fill:none;stroke:#28364F;stroke-width:1.3993;stroke-miterlimit:10;" x1="50.614" y1="437.048" x2="549.225" y2="437.048"/>
		<g>
			<path style="fill:#28364F;" d="M501.358,218.957l-2.077-0.018l0.126-14.552c0.003-0.292,0.056-0.581,0.157-0.855l0.703-1.897
				c0.07-0.188,0.337-0.186,0.404,0.003l0.67,1.909c0.097,0.275,0.145,0.565,0.142,0.857L501.358,218.957z"/>
			<path style="fill:#DE6767;" d="M411.083,218.092c0,0-17.709,24.344-21.986,30.494c-4.277,6.151-6.534,15.417-0.95,19.219
				c5.584,3.802,14.256,3.891,18.77-12.429l10.184-14.648L411.083,218.092z"/>
			<path style="fill:#28364F;" d="M394.342,252.325l11.793,5.598c0,0,0.554-1.579,0.782-2.547l-7.511-6.492L394.342,252.325z"/>
			<path style="fill:#DE6767;" d="M388.841,390.099l-4.588,31.429c-0.375,2.568-2.073,4.749-4.47,5.741l-15.435,6.393
				c-1.597,0.662-2.638,2.22-2.638,3.949l0,0h33.932c1.44,0,2.531-1.349,2.176-2.744c-0.937-3.683-3.247-6.979-2.096-11.795
				c1.428-5.971,10.385-32.973,10.385-32.973H388.841z"/>
			<path style="fill:#943232;" d="M382.327,425.496c-0.705,0.751-1.561,1.366-2.544,1.774l-15.435,6.393
				c-1.597,0.662-2.638,2.22-2.638,3.949h33.932c1.441,0,2.531-1.351,2.175-2.747c-0.477-1.874-1.308-3.648-1.858-5.573
				l-4.441,1.121c-1.631,0.412-3.347-0.103-4.516-1.312C385.39,427.434,383.711,426.275,382.327,425.496z"/>
			<path style="fill:#DE6767;" d="M466.327,390.099l7.555,31.429c0.617,2.568-0.238,4.749-2.252,5.741l-12.965,6.393
				c-1.342,0.662-1.781,2.22-1.113,3.949l0,0h32.212c1.44,0,2.009-1.349,1.115-2.744c-2.36-3.683-4.224-6.979-4.933-11.795
				c-0.879-5.971-2.354-32.973-2.354-32.973H466.327z"/>
			<path style="fill:#943232;" d="M473.49,425.496c-0.414,0.751-1.033,1.366-1.859,1.774l-12.965,6.393
				c-1.341,0.662-1.781,2.22-1.113,3.949h32.212c1.441,0,2.009-1.351,1.114-2.747c-1.201-1.874-2.036-4.114-3.331-6.039
				l-2.969,1.587c-1.472,0.412-3.387-0.103-5.023-1.312C477.302,427.434,475.175,426.275,473.49,425.496z"/>
			<g>
				<path style="fill:#C25353;" d="M466.327,390.098l3.039,12.641c0.258-0.116,0.518-0.233,0.74-0.352
					c3.778,1.736,9.179,2.811,14.362,2.382c-0.492-7.664-0.875-14.671-0.875-14.671H466.327z"/>
				<path style="fill:#C25353;" d="M388.841,390.098l-1.87,12.811c2.068-0.255,4.385-0.723,6.976-1.517
					c2.537,1.409,5.084,2.295,7.552,2.798c2.398-7.434,4.607-14.092,4.607-14.092H388.841z"/>
			</g>
			<path style="fill:#2F3328;" d="M430.555,179.84c0,0,7.616-2.337,10.732,0.952c3.115,3.289,1.99,9.952,6.318,11.164
				c4.327,1.212,4.673,6.318,3.721,9.347c-0.952,3.029,0.519,5.193,4.154,6.577c3.635,1.385,3.808,6.664,2.683,11.857l-38.772,3.289
				c0,0-3.029-5.106-1.125-9.174c1.904-4.068-1.731-5.366-1.818-8.395c-0.086-3.029,1.471-4.5,1.039-7.875
				c-0.433-3.375-3.289-3.721-3.289-8.481S417.487,178.715,430.555,179.84z"/>
			<polygon style="fill:#943232;" points="440.162,210.173 459.547,217.054 453.749,253.575 420.516,253.575 411.083,218.092 
				428.997,210.996 			"/>
			<polyline style="fill:none;stroke:#1B2536;stroke-width:0.378;stroke-miterlimit:10;" points="440.762,210.947 443.668,222.052 
				438.324,227.072 442.168,231.994 429.984,242.113 422.012,229.633 427.678,225.807 422.939,220.859 428.543,211.791 			"/>
			<polygon style="fill:#FFFFFF;" points="428.997,210.996 430.22,237.794 440.162,210.173 			"/>
			<polygon style="fill:#1B2536;" points="449.855,233.064 453.86,252.875 456.741,234.73 			"/>
			<path style="fill:#DE6767;" d="M459.547,217.054l15.318,23.194l18.174-18.867l1.097-4.267c0.302-1.174,0.901-2.251,1.74-3.127
				l3.06-3.194c0.329-0.344,0.874-0.359,1.221-0.034l0,0c0.302,0.282,0.364,0.738,0.148,1.09l-2.257,3.678l2.629-1.915l0.15-2.899
				c0.027-0.513,0.388-0.948,0.888-1.067l0.65-0.155l0.615,4.074c0.043,0.286,0.01,0.579-0.097,0.847l-0.648,1.634l1.183,3.314
				c0.361,1.01-0.007,2.137-0.895,2.739l-4.28,2.904c0,0-9.986,22.669-13.274,28.57c-6.123,10.991-17.114,12.635-23.605,1.039
				c-6.491-11.597-10.126-18.52-11.51-21.549C448.47,230.035,450.46,218.352,459.547,217.054z"/>
			
				<line style="fill:none;stroke:#422424;stroke-width:0.5;stroke-miterlimit:10;" x1="474.866" y1="240.248" x2="467.293" y2="248.036"/>
			<path style="fill:none;stroke:#422424;stroke-width:0.5;stroke-miterlimit:10;" d="M501.191,215.75l-3.363,0.961
				c-0.458,0.131-0.795,0.52-0.86,0.992l-0.272,1.996l2.769,4.211"/>
			<path style="fill:none;stroke:#422424;stroke-width:0.5;stroke-miterlimit:10;" d="M497.56,221.013l0.684-2.019
				c0.134-0.397,0.466-0.695,0.875-0.787l2.912-0.651"/>
			<path style="fill:none;stroke:#422424;stroke-width:0.5;stroke-miterlimit:10;" d="M498.277,222.104l1.207-1.744
				c0.198-0.286,0.511-0.473,0.857-0.51l2.153-0.235"/>
			<path style="fill:none;stroke:#422424;stroke-width:0.5;stroke-miterlimit:10;" d="M500.126,222.538l0.234-0.391
				c0.217-0.362,0.608-0.583,1.03-0.583h1.696"/>
			<path style="fill:#943232;" d="M494.338,396.892c-25.264-91.155-38.512-132.456-38.512-132.456l-2.077-10.861h-33.233
				l-2.986,10.731c0,0-23.188,71.937-42.969,132.585c0,0,6.404,3.981,19.386,0c9.347,5.193,18.867,3.462,23.886,0.519
				c5.409,4.89,16.054,4.76,25.617,0.692c8.135,4.5,21.809,2.38,26.656-0.216C476.51,400.83,487.588,401.912,494.338,396.892z"/>
			
				<line style="fill:none;stroke:#1B2536;stroke-width:0.378;stroke-miterlimit:10;" x1="451.871" y1="253.575" x2="422.939" y2="253.575"/>
			<g>
				
					<line style="fill:none;stroke:#1B2536;stroke-width:0.378;stroke-miterlimit:10;" x1="453.749" y1="264.307" x2="419.737" y2="264.307"/>
				<g>
					
						<line style="fill:none;stroke:#1B2536;stroke-width:0.5;stroke-miterlimit:10;" x1="423.043" y1="264.307" x2="394.342" y2="390.787"/>
					
						<line style="fill:none;stroke:#1B2536;stroke-width:0.5;stroke-miterlimit:10;" x1="431.676" y1="264.307" x2="418.928" y2="391.611"/>
					
						<line style="fill:none;stroke:#1B2536;stroke-width:0.5;stroke-miterlimit:10;" x1="440.347" y1="264.307" x2="443.837" y2="392.445"/>
					
						<line style="fill:none;stroke:#1B2536;stroke-width:0.5;stroke-miterlimit:10;" x1="449.059" y1="264.307" x2="469.074" y2="393.291"/>
				</g>
			</g>
			<g>
				<polygon style="fill:#EBBC3B;" points="433.918,265.289 408.907,265.289 398.123,229.633 423.134,229.633 				"/>
				<path style="fill:#1B2536;" d="M415.817,230.813c-0.534-1.178-1.81-2.048-3.001-2.048h-1.023l-0.396-1.309
					c-0.294-0.971-1.319-1.758-2.29-1.758c-0.971,0-1.52,0.787-1.226,1.758l0.396,1.309h-1.023c-1.191,0-1.94,0.87-1.762,2.048
					l0.117,0.775h10.558L415.817,230.813z"/>
			</g>
			
				<line style="fill:none;stroke:#28364F;stroke-width:0.5;stroke-miterlimit:10;" x1="388.841" y1="256.064" x2="399.843" y2="248.587"/>
			<g>
				<path style="fill:#DE6767;" d="M399.447,244.381l4.387-2.393c0.715-0.39,1.609-0.164,2.054,0.518l3.382,5.187
					c0.372,0.571,0.309,1.322-0.154,1.823l-3.752,4.06l0.545,1.801l-2.271-0.139c-1.174-0.072-2.233-0.728-2.82-1.746l-2.643-4.585
					C397.253,247.307,397.828,245.264,399.447,244.381z"/>
				
					<line style="fill:none;stroke:#422424;stroke-width:0.5;stroke-miterlimit:10;" x1="399.843" y1="247.461" x2="406.334" y2="243.189"/>
				
					<line style="fill:none;stroke:#422424;stroke-width:0.5;stroke-miterlimit:10;" x1="401.401" y1="249.67" x2="407.553" y2="245.017"/>
				
					<line style="fill:none;stroke:#422424;stroke-width:0.5;stroke-miterlimit:10;" x1="402.894" y1="251.909" x2="408.772" y2="246.846"/>
			</g>
			<path style="fill:none;stroke:#28364F;stroke-width:0.5;stroke-miterlimit:10;" d="M398.275,249.08l-0.251-0.547
				c-0.684-1.493-0.108-3.26,1.324-4.063l2.284-1.281"/>
			<path style="fill:#DE6767;" d="M440.162,210.173l-2.034-11.467v-6.145c0,0-5.625-1.168-7.183-6.491c0,0-4.5,7.097-9.823,7.227
				c0,0,1.255,4.327,1.471,7.313c0.216,2.986,1.688,6.145,6.318,5.193l0.086,5.193C428.997,210.996,434.233,214.587,440.162,210.173
				z"/>
			<path style="fill:none;stroke:#422424;stroke-width:0.5;stroke-miterlimit:10;" d="M429.387,205.587c0,0,3.202-0.822,5.971-3.851
				"/>
			<path style="fill:#DE6767;" d="M442.044,195.451c-0.97,1.851-2.964,2.72-4.453,1.939c-1.49-0.78-1.911-2.914-0.942-4.765
				c0.97-1.851,2.964-2.72,4.453-1.939C442.592,191.466,443.013,193.6,442.044,195.451z"/>
			<path style="fill:none;stroke:#422424;stroke-width:0.5;stroke-miterlimit:10;" d="M437.295,195.245c0,0,1.266-4.836,4.089-2.759
				"/>
			
				<line style="fill:none;stroke:#422424;stroke-width:0.5;stroke-miterlimit:10;" x1="439.697" y1="194.498" x2="439.044" y2="192.3"/>
			<path style="fill:#1B2536;" d="M425.029,196.09l0.673,0.091c0.003-0.054,0.021-0.104,0.016-0.16
				c-0.057-0.571-0.565-0.988-1.136-0.931c-0.571,0.057-0.987,0.565-0.931,1.136c0.057,0.571,0.565,0.987,1.136,0.931
				c0.388-0.039,0.691-0.294,0.837-0.628L425.029,196.09z"/>
			<path style="fill:#1B2536;" d="M430.972,195.499l0.673,0.091c0.003-0.054,0.022-0.104,0.016-0.16
				c-0.057-0.571-0.565-0.988-1.136-0.931c-0.571,0.057-0.988,0.565-0.931,1.136c0.057,0.571,0.565,0.988,1.136,0.931
				c0.388-0.039,0.691-0.294,0.837-0.628L430.972,195.499z"/>
			<path style="fill:none;stroke:#2F3328;stroke-miterlimit:10;" d="M428.413,193.254c0,0,1.212-0.649,3.613-0.368"/>
			<path style="fill:none;stroke:#2F3328;stroke-miterlimit:10;" d="M426.055,193.606c0,0-1.579-0.244-3.116,0.557"/>
			<polyline style="fill:none;stroke:#422424;stroke-width:0.5;stroke-miterlimit:10;" points="426.812,195.085 427.072,196.932 
				426.812,199.399 428.543,198.945 			"/>
			<path style="fill:#422424;" d="M427.245,200.567l3.851-1.558c0,0,0.417,3.452-0.757,4.111
				C429.452,203.618,427.245,200.567,427.245,200.567z"/>
			<path style="fill:#943232;" d="M428.803,202.374c0.571,0.545,1.167,0.953,1.536,0.746c0.588-0.33,0.777-1.36,0.819-2.307
				C430.029,200.999,429.137,201.599,428.803,202.374z"/>
			
				<line style="fill:none;stroke:#D9956A;stroke-width:0.378;stroke-miterlimit:10;" x1="433.355" y1="212.729" x2="430.642" y2="235.416"/>
			<path style="fill:#D9956A;" d="M435.358,217.574c0,0.398-0.322,0.72-0.72,0.72c-0.398,0-0.72-0.323-0.72-0.72
				c0-0.398,0.322-0.72,0.72-0.72C435.036,216.854,435.358,217.176,435.358,217.574z"/>
			<path style="fill:#D9956A;" d="M434.076,224.341c0,0.398-0.322,0.72-0.72,0.72c-0.398,0-0.72-0.322-0.72-0.72
				c0-0.398,0.322-0.72,0.72-0.72C433.753,223.62,434.076,223.943,434.076,224.341z"/>
		</g>
		<g>
			
				<line style="fill:none;stroke:#FFFFFF;stroke-width:2;stroke-linecap:round;stroke-linejoin:round;stroke-miterlimit:10;" x1="112.264" y1="206.609" x2="112.264" y2="221.658"/>
			
				<line style="fill:none;stroke:#FFFFFF;stroke-width:2;stroke-linecap:round;stroke-linejoin:round;stroke-miterlimit:10;" x1="119.788" y1="214.133" x2="104.739" y2="214.133"/>
		</g>
		<g>
			
				<line style="fill:none;stroke:#FFFFFF;stroke-width:2;stroke-linecap:round;stroke-linejoin:round;stroke-miterlimit:10;" x1="258.477" y1="87.614" x2="258.477" y2="102.663"/>
			
				<line style="fill:none;stroke:#FFFFFF;stroke-width:2;stroke-linecap:round;stroke-linejoin:round;stroke-miterlimit:10;" x1="266.002" y1="95.139" x2="250.953" y2="95.139"/>
		</g>
		<g>
			
				<line style="fill:none;stroke:#FFFFFF;stroke-width:2;stroke-linecap:round;stroke-linejoin:round;stroke-miterlimit:10;" x1="503.556" y1="402.116" x2="503.556" y2="417.165"/>
			
				<line style="fill:none;stroke:#FFFFFF;stroke-width:2;stroke-linecap:round;stroke-linejoin:round;stroke-miterlimit:10;" x1="511.08" y1="409.64" x2="496.031" y2="409.64"/>
		</g>
		<g>
			<path style="fill:#CF7F4C;" d="M116.773,403.448l-5.193,12.809l5.193,12.289l9.001,6.516c0.815,0.59,0.398,1.879-0.609,1.879
				h-7.623c-3.818,0-7.479-1.517-10.179-4.216l-14.15-14.15c-1.492-1.492-1.2-3.986,0.597-5.092l7.298-4.495l3.765-10.509
				L116.773,403.448z"/>
			<polygon style="fill:#1B2536;" points="102.509,405.078 115.079,407.625 116.773,403.448 104.873,398.477 			"/>
			<path d="M99.943,409.705l-6.132,3.777c-1.796,1.107-2.089,3.6-0.597,5.092l14.15,14.15c2.7,2.699,6.361,4.216,10.179,4.216h7.623
				c1.006,0,1.424-1.289,0.609-1.879l-9.001-6.516l-5.193-12.289l-5.214,1.452L99.943,409.705z"/>
			<path style="fill:#CF7F4C;" d="M201.261,412.059l1.363,8.243l10.515,8.373l12.107,5.348c1.562,0.69,1.07,3.025-0.638,3.025
				H189.54c-2.143,0-3.676-2.073-3.047-4.122l2.969-9.681c0.161-0.526,0.186-1.084,0.071-1.621l-2.033-9.565H201.261z"/>
			<polygon style="fill:#1B2536;" points="201.261,412.059 187.501,412.059 188.824,418.284 201.859,415.674 			"/>
			<path d="M188.931,424.978l-2.438,7.948c-0.628,2.049,0.904,4.122,3.047,4.122h35.067c1.708,0,2.201-2.334,0.638-3.025
				l-12.107-5.348l-10.515-8.373l-3.17,7.426L188.931,424.978z"/>
			<path style="fill:#415780;" d="M189.318,273.021l17.087,142.216h-25.125l-19.278-125.301l-10.951,51.339
				c-1.14,5.345-2.938,10.528-5.352,15.431l-25.765,52.331L99.051,399.9l24.146-55.772l12.726-71.108l33.209-16.852L189.318,273.021
				z"/>
			<polygon style="fill:#1B2536;" points="190.693,284.459 132.794,290.508 135.923,273.021 169.132,255.514 189.318,273.021 			"/>
			
				<line style="fill:none;stroke:#000000;stroke-width:0.3698;stroke-miterlimit:10;" x1="101.658" y1="393.878" x2="122.869" y2="403.077"/>
			
				<line style="fill:none;stroke:#000000;stroke-width:0.3698;stroke-miterlimit:10;" x1="180.418" y1="409.64" x2="205.732" y2="409.64"/>
			
				<line style="fill:none;stroke:#000000;stroke-width:0.3698;stroke-miterlimit:10;" x1="165.151" y1="289.936" x2="184.45" y2="409.64"/>
			<polyline style="fill:none;stroke:#000000;stroke-width:0.3698;stroke-miterlimit:10;" points="139.188,280.988 126.725,345.377 
				104.873,395.272 			"/>
			
				<line style="fill:none;stroke:#000000;stroke-width:0.3698;stroke-miterlimit:10;" x1="162.002" y1="289.936" x2="167.591" y2="264.307"/>
			
				<line style="fill:none;stroke:#000000;stroke-width:0.3698;stroke-miterlimit:10;" x1="152.256" y1="290.508" x2="173.719" y2="289.556"/>
			<path style="fill:none;stroke:#000000;stroke-width:0.3698;stroke-miterlimit:10;" d="M162.987,285.417l2.041-0.697
				c1.588-0.543,2.772-1.884,3.113-3.527l3.076-14.83"/>
			<path style="fill:#415780;" d="M216.731,242.043c-2.842-4.618-15.962-19.823-19.755-30.994
				c-1.894-5.578-7.509-8.868-13.974-9.955l-15.282-3.707l-18.025,1.784c-7.564,0.749-13.245,7.243-12.981,14.839l1.088,31.322
				l-8.654,37.041h25.469c5.373,0,10.008-3.772,11.1-9.034l2.246-10.828l1.519,10.196c0.827,5.555,5.597,9.666,11.213,9.666h13.741
				l-7.303-27.348c0,0,13.501,16.097,25.963,11.424C225.559,261.775,220.885,248.794,216.731,242.043z"/>
			
				<line style="fill:none;stroke:#000000;stroke-width:0.3698;stroke-miterlimit:10;" x1="192.499" y1="213.441" x2="186.138" y2="250.308"/>
			<polygon style="fill:#1B2536;" points="129.149,282.373 167.591,264.307 133.519,263.669 			"/>
			<path style="fill:#415780;" d="M170.43,249.313l-2.839,14.994c0,0-28.75,3.267-36.365,3.527
				c-7.616,0.26-18.261-4.5-12.809-22.415c3.266-10.732,9.018-24.726,13.104-34.222c2.835-6.587,9.016-11.12,16.152-11.826
				l2.875-0.285l-0.715,21.148l-4.414,28.819L170.43,249.313z"/>
			
				<line style="fill:none;stroke:#000000;stroke-width:0.3698;stroke-miterlimit:10;" x1="170.214" y1="249.313" x2="132.913" y2="248.837"/>
			
				<line style="fill:none;stroke:#000000;stroke-width:0.3698;stroke-miterlimit:10;" x1="149.335" y1="223.486" x2="145.419" y2="249.053"/>
			<g>
				<polygon style="fill:#FFFFFF;" points="193.522,225.294 191.719,225.294 184.442,257.545 186.245,257.545 224.916,257.545 
					232.193,225.294 				"/>
				<path style="fill:none;stroke:#4A75C9;stroke-width:0.3414;stroke-miterlimit:10;" d="M214.874,245.19h-13.012
					c-0.924,0-1.503-0.749-1.295-1.672l0.947-4.195c0.208-0.924,1.126-1.672,2.05-1.672h13.012c0.924,0,1.503,0.749,1.295,1.672
					l-0.947,4.195C216.716,244.441,215.798,245.19,214.874,245.19z"/>
				
					<line style="fill:none;stroke:#4A75C9;stroke-width:0.3414;stroke-miterlimit:10;" x1="193.296" y1="226.941" x2="187.037" y2="254.679"/>
			</g>
			<path style="fill:#CF7F4C;" d="M172.572,251.412h7.075l7.704-2.76c0.644-0.231,1.346-0.243,1.998-0.035l5.235,1.672
				c0.746,0.238,1.06,1.122,0.63,1.777l0,0c-0.234,0.358-0.644,0.561-1.07,0.533l-6.06-0.408l6.101,3.83l4.673,1.688
				c0,0-3.051,2.012-4.933,1.233c-1.947,1.428-4.544,0.714-4.544,0.714s-2.207,1.006-3.667,0.178c-1.59,0.6-5.03-1.022-5.03-1.022
				l-9.866,2.077L172.572,251.412z"/>
			<polygon style="fill:#FFFFFF;" points="158.449,198.304 168.872,240.572 172.88,198.638 			"/>
			
				<line style="fill:none;stroke:#000000;stroke-width:0.3698;stroke-miterlimit:10;" x1="169.132" y1="242.303" x2="170.214" y2="248.469"/>
			<circle style="fill:none;stroke:#FFFFFF;stroke-width:0.3414;stroke-miterlimit:10;" cx="166.016" cy="245.678" r="1.558"/>
			<path style="fill:none;stroke:#000000;stroke-width:0.3698;stroke-miterlimit:10;" d="M173.632,199.983l3.758,5.091
				c0.982,1.331,1.112,3.108,0.334,4.567l-2.188,4.102l2.318,3.813c0.718,1.181,0.823,2.637,0.282,3.909l-8.463,19.886"/>
			<path style="fill:none;stroke:#000000;stroke-width:0.3698;stroke-miterlimit:10;" d="M157.622,199.086l-3.382,5.311
				c-1.159,1.82-0.898,4.2,0.628,5.726l4.139,4.139l-2.297,4.02c-1.138,1.992-1.056,4.456,0.213,6.367l11.085,16.701"/>
			<polygon style="fill:#FFFFFF;" points="170.43,249.313 174.844,249.313 172.377,263.614 167.591,264.307 			"/>
			<g>
				<path style="fill:#386063;" d="M179.842,181.83h7.205c0,0-0.324-1.688,0-6.751c0.325-5.063,0.254-9.299-7.205-11.164
					c-3.116-0.779-7.335-1.882-9.477-2.402c-2.142-0.519-4.673-0.065-7.01,2.012c-2.337,2.077-4.414,2.726-4.414,2.726l2.272,15.578
					l3.31,1.298L179.842,181.83z"/>
				<path style="fill:#CF7F4C;" d="M180.296,170.082l2.531,6.686l-1.882,5.452c0,0,0.195,9.736-8.308,10.255l0.243,6.163l0,0
					c-2.577,4.036-8.107,4.902-11.795,1.849l-2.636-2.183l4.452-16.604c0,0,5.452-3.116,5.647-9.477
					C168.548,172.224,174.974,172.873,180.296,170.082z"/>
				<circle style="fill:#D65353;" cx="169.08" cy="182.271" r="2.068"/>
				<path style="fill:none;stroke:#422424;stroke-width:0.5;stroke-miterlimit:10;" d="M171.923,192.508
					c-2.824,0.097-7.284-2.379-8.406-6.296"/>
				<path style="fill:#CF7F4C;" d="M165.309,178.865c0.98,2.258,0.143,4.796-1.869,5.67c-2.012,0.873-4.438-0.25-5.418-2.508
					c-0.98-2.258-0.143-4.796,1.869-5.669C161.904,175.484,164.329,176.606,165.309,178.865z"/>
				<path style="fill:none;stroke:#422424;stroke-width:0.5;stroke-miterlimit:10;" d="M158.941,178.65c0,0,4.825-2.596,4.911,3.808
					"/>
				
					<line style="fill:none;stroke:#422424;stroke-width:0.5;stroke-miterlimit:10;" x1="160.348" y1="180.987" x2="162.002" y2="178.323"/>
				<g>
					<path d="M172.48,177.258c-0.616-0.172-1.256,0.188-1.428,0.804c-0.027,0.098-0.037,0.196-0.038,0.293l0.89,0.078l-0.781,0.429
						c0.138,0.296,0.395,0.534,0.734,0.628c0.616,0.172,1.256-0.188,1.428-0.804C173.457,178.069,173.097,177.43,172.48,177.258z"/>
					<path d="M178.951,179.087c-0.616-0.172-1.256,0.188-1.428,0.804c-0.027,0.098-0.037,0.195-0.038,0.292l0.89,0.078l-0.781,0.429
						c0.138,0.296,0.395,0.534,0.734,0.628c0.616,0.172,1.256-0.188,1.428-0.804C179.928,179.898,179.568,179.259,178.951,179.087z"
						/>
				</g>
				<path style="fill:none;stroke:#422424;stroke-width:0.5;stroke-miterlimit:10;" d="M176.012,177.124l-0.746,2.759l0.054,2.893
					c0.013,0.677-0.668,1.149-1.297,0.9l-1.386-0.548"/>
				<path style="fill:none;stroke:#422424;stroke-width:0.5;stroke-miterlimit:10;" d="M174.324,184.838c0,0-3.591-0.13-4.717-3.072
					"/>
				
					<line style="fill:none;stroke:#422424;stroke-width:0.5;stroke-miterlimit:10;" x1="168.742" y1="182.068" x2="170.344" y2="181.506"/>
				<path style="fill:none;stroke:#386063;stroke-miterlimit:10;" d="M171.014,174.204c0,0,2.57-0.512,3.732,1.395"/>
				<path style="fill:none;stroke:#386063;stroke-miterlimit:10;" d="M177.245,176.734c0,0,2.57-0.511,3.732,1.396"/>
				<path style="fill:none;stroke:#6E9296;stroke-width:0.5;stroke-miterlimit:10;" d="M179.111,167.061c0,0-6.85,3.797-14.49,1.828
					"/>
				<path style="fill:none;stroke:#6E9296;stroke-width:0.5;stroke-miterlimit:10;" d="M175.402,165.374
					c0,0-4.266,3.375-10.781,1.688"/>
				<path style="fill:none;stroke:#6E9296;stroke-width:0.5;stroke-miterlimit:10;" d="M173.042,164.061
					c0,0-1.953,1.547-7.859,0.984"/>
			</g>
		</g>
	</g>
</g>
</svg>
